HIERARCHY
ROOT Hips
{
	OFFSET 0.00000 0.00000 0.00000
	CHANNELS 6 Xposition Yposition Zposition Zrotation Yrotation Xrotation 
	JOINT LHipJoint
	{
		OFFSET 0 0 0
		CHANNELS 3 Zrotation Yrotation Xrotation
		JOINT LeftUpLeg
		{
			OFFSET 1.75344 -1.53157 0.77399
			CHANNELS 3 Zrotation Yrotation Xrotation
			JOINT LeftLeg
			{
				OFFSET 2.25415 -6.19323 0.00000
				CHANNELS 3 Zrotation Yrotation Xrotation
				JOINT LeftFoot
				{
					OFFSET 2.30342 -6.32861 0.00000
					CHANNELS 3 Zrotation Yrotation Xrotation
					JOINT LeftToeBase
					{
						OFFSET 0.10958 -0.30108 1.49206
						CHANNELS 3 Zrotation Yrotation Xrotation
						End Site
						{
							OFFSET 0.00000 -0.00000 0.77783
						}
					}
				}
			}
		}
	}
	JOINT RHipJoint
	{
		OFFSET 0 0 0
		CHANNELS 3 Zrotation Yrotation Xrotation
		JOINT RightUpLeg
		{
			OFFSET -1.81912 -1.53156 0.77399
			CHANNELS 3 Zrotation Yrotation Xrotation
			JOINT RightLeg
			{
				OFFSET -2.22882 -6.12365 0.00000
				CHANNELS 3 Zrotation Yrotation Xrotation
				JOINT RightFoot
				{
					OFFSET -2.21943 -6.09785 0.00000
					CHANNELS 3 Zrotation Yrotation Xrotation
					JOINT RightToeBase
					{
						OFFSET -0.18931 -0.52012 1.59379
						CHANNELS 3 Zrotation Yrotation Xrotation
						End Site
						{
							OFFSET -0.00000 -0.00000 0.84686
						}
					}
				}
			}
		}
	}
	JOINT LowerBack
	{
		OFFSET 0 0 0
		CHANNELS 3 Zrotation Yrotation Xrotation
		JOINT Spine
		{
			OFFSET -0.00200 1.66634 -0.14248
			CHANNELS 3 Zrotation Yrotation Xrotation
			JOINT Spine1
			{
				OFFSET -0.00875 1.64542 0.09514
				CHANNELS 3 Zrotation Yrotation Xrotation
				JOINT Neck
				{
					OFFSET 0 0 0
					CHANNELS 3 Zrotation Yrotation Xrotation
					JOINT Neck1
					{
						OFFSET 0.02257 1.59605 0.00839
						CHANNELS 3 Zrotation Yrotation Xrotation
						JOINT Head
						{
							OFFSET -0.10214 1.57530 -0.23335
							CHANNELS 3 Zrotation Yrotation Xrotation
							End Site
							{
								OFFSET -0.03588 1.60717 -0.08062
							}
						}
					}
				}
				JOINT LeftShoulder
				{
					OFFSET 0 0 0
					CHANNELS 3 Zrotation Yrotation Xrotation
					JOINT LeftArm
					{
						OFFSET 2.54983 1.10186 0.40078
						CHANNELS 3 Zrotation Yrotation Xrotation
						JOINT LeftForeArm
						{
							OFFSET 4.28840 -0.00000 0.00000
							CHANNELS 3 Zrotation Yrotation Xrotation
							JOINT LeftHand
							{
								OFFSET 3.06552 -0.00000 -0.00000
								CHANNELS 3 Zrotation Yrotation Xrotation
								JOINT LeftFingerBase
								{
									OFFSET 0 0 0
									CHANNELS 3 Zrotation Yrotation Xrotation
									JOINT LeftHandIndex1
									{
										OFFSET 0.75304 -0.00000 0.00000
										CHANNELS 3 Zrotation Yrotation Xrotation
										End Site
										{
											OFFSET 0.60712 -0.00000 0.00000
										}
									}
								}
								JOINT LThumb
								{
									OFFSET 0 0 0
									CHANNELS 3 Zrotation Yrotation Xrotation
									End Site
									{
										OFFSET 0.61639 -0.00000 0.61639
									}
								}
							}
						}
					}
				}
				JOINT RightShoulder
				{
					OFFSET 0 0 0
					CHANNELS 3 Zrotation Yrotation Xrotation
					JOINT RightArm
					{
						OFFSET -2.60909 1.35448 0.21802
						CHANNELS 3 Zrotation Yrotation Xrotation
						JOINT RightForeArm
						{
							OFFSET -4.52172 -0.00000 -0.00000
							CHANNELS 3 Zrotation Yrotation Xrotation
							JOINT RightHand
							{
								OFFSET -2.89140 -0.00000 0.00000
								CHANNELS 3 Zrotation Yrotation Xrotation
								JOINT RightFingerBase
								{
									OFFSET 0 0 0
									CHANNELS 3 Zrotation Yrotation Xrotation
									JOINT RightHandIndex1
									{
										OFFSET -0.68054 -0.00000 0.00000
										CHANNELS 3 Zrotation Yrotation Xrotation
										End Site
										{
											OFFSET -0.54867 -0.00000 0.00000
										}
									}
								}
								JOINT RThumb
								{
									OFFSET 0 0 0
									CHANNELS 3 Zrotation Yrotation Xrotation
									End Site
									{
										OFFSET -0.55705 -0.00000 0.55705
									}
								}
							}
						}
					}
				}
			}
		}
	}
}
MOTION
Frames: 6
Frame Time: 0.08
0.00 0.00 0.00 0 0 0 0 0 0 -21 0 0 0 0 0 0 0 0 0 0 0 0 0 0 21 0 0 0 0 0 0 0 0 0 0 0 0 0 0 0 0 0 0 0 0 0 0 -16 0 0 21 0 0 11 0 0 0 -8 0 0 0 0 0 0 0 0 0 0 0 0 0 0 0 0 0 0 0 0 8 0 0 0 0 0 0 0 0 0 0 0 0 0 0 0 0 0
0.00 0.00 0.00 177.3480 4.6286 180.4330 0.0000 0.0000 0.0000 -31.2540 -17.7705 2.1371 1.5961 7.9685 22.6184 1.7262 11.2850 -31.0926 2.2290 -9.3276 -26.8255 0.0000 0.0000 0.0000 19.5198 15.0452 -11.1474 -5.6039 -14.0332 43.3705 -1.0808 -13.4507 -28.6390 -0.2834 3.4238 -9.4609 -1.1546 1.1237 9.6853 -0.2465 1.3452 -3.0473 0.1582 0.7129 -8.7044 -12.3273 -9.4161 -3.1191 10.4237 -12.7337 13.8063 4.3920 -6.0290 6.1581 0.0000 0.0000 0.0000 -84.1599 14.7613 30.5164 19.6623 -30.2333 -5.3603 -0.0000 -0.0000 12.6571 7.0578 -31.7375 -3.7263 -7.1250 0.0000 -0.0000 -13.8845 -1.1397 14.5898 0.0000 0.0000 0.0000 78.6011 -11.3005 27.0670 -20.3571 31.0702 -5.7145 0.0000 0.0000 9.6865 -6.4625 -56.8992 5.4206 7.1250 -0.0000 -0.0000 82.8875 -74.3731 -66.5128
0.00 0.00 0.00 177.4720 11.3155 181.7450 0.0000 0.0000 0.0000 -32.0585 -11.9088 14.0666 0.0992 2.0310 5.5914 0.2597 16.9763 -26.2919 0.3736 -3.9260 -10.8687 0.0000 0.0000 0.0000 17.5886 10.3891 -31.1596 -5.4525 -13.8759 42.7425 -1.0681 -13.3539 -28.4600 -0.0742 -1.7577 4.8365 -2.1215 -0.7227 11.6990 1.0479 -1.1921 -3.1242 2.5633 -0.4042 -9.8831 -11.4646 -7.9161 -5.7195 11.6987 -10.7585 12.3784 4.7633 -4.9496 5.9372 0.0000 -0.0000 0.0000 -85.2614 13.5492 36.4171 20.0389 -30.6892 -5.5512 -0.0000 -0.0000 13.4296 8.5636 -29.7019 -4.2671 -7.1250 0.0000 -0.0000 -12.9361 0.6601 13.1265 0.0000 -0.0000 0.0000 83.3659 -14.1296 26.0645 -17.6485 27.7048 -4.3846 0.0000 0.0000 13.9817 -3.9770 -52.2324 3.1457 7.1250 -0.0000 -0.0000 68.2537 -72.5068 -50.4004
0.00 0.00 0.00 176.9200 13.4248 182.0210 0.0000 0.0000 0.0000 -31.4985 -6.8203 18.2287 0.0000 0.0000 0.0000 0.0044 16.4477 -23.3668 0.5433 -4.7223 -13.1182 0.0000 0.0000 0.0000 12.4521 21.9433 -25.9213 -1.8528 -8.5524 24.4049 0.1670 -28.4211 -38.9647 -0.6267 -5.0658 14.0964 -2.4273 -1.0296 10.6916 0.7824 -1.6520 -2.8483 2.5040 -0.6404 -8.9634 -10.6696 -7.3927 -5.8034 11.7603 -10.1294 12.6999 4.7177 -4.5851 5.9348 0.0000 0.0000 0.0000 -84.3775 10.0705 40.5365 19.6844 -30.2602 -5.3714 -0.0000 -0.0000 13.0766 7.8779 -31.4550 -4.1299 -7.1250 0.0000 -0.0000 -13.4113 -0.9636 14.0223 0.0000 0.0000 0.0000 83.4507 -15.2636 26.5426 -18.4556 28.7366 -4.7663 0.0000 0.0000 14.5417 -1.4277 -54.5049 1.1625 7.1250 -0.0000 -0.0000 76.4024 -72.2354 -57.6579
0.00 0.00 0.00 176.8440 16.8740 185.2260 0.0000 0.0000 0.0000 -25.3206 -0.7088 13.0039 0.8483 5.8745 16.4207 -0.6107 14.5654 -10.7530 1.3643 -7.3928 -20.8843 0.0000 0.0000 0.0000 17.3389 26.1441 -17.9857 -1.1437 -6.7909 19.0975 2.0443 -34.4173 -39.4292 -2.5018 -9.8411 28.4637 -2.6933 -1.7575 7.4615 1.0450 -2.5244 -4.2268 2.9848 -1.0183 -8.4985 -9.5723 -5.8191 -8.3895 10.4946 -7.8888 15.6112 4.2987 -3.3928 6.9394 -0.0000 0.0000 0.0000 -85.0399 7.8318 42.3248 21.8085 -32.7599 -6.4819 -0.0000 -0.0000 9.9081 9.5842 -30.9780 -4.9671 -7.1250 0.0000 -0.0000 -12.4222 -0.7137 12.8811 -0.0000 0.0000 0.0000 81.2717 -14.4948 24.3922 -17.5654 27.5971 -4.3460 0.0000 0.0000 15.9392 -5.1039 -51.7979 4.0149 7.1250 -0.0000 -0.0000 66.2951 -72.7610 -48.9351
0.00 0.00 0.00 178.1180 19.7269 183.4860 0.0000 0.0000 0.0000 -20.4255 3.3961 5.9369 3.4988 11.4618 33.8537 -0.4038 11.8501 -0.1581 1.2174 -6.9988 -19.7118 0.0000 0.0000 0.0000 23.7887 21.7148 -10.4994 -0.7527 -5.5414 15.4593 3.0234 -33.1803 -30.9561 -1.7059 -8.2246 23.3983 -1.2647 -1.3670 7.8868 0.6965 -1.8916 -3.6734 1.7257 -0.8194 -8.2446 -9.0565 -5.3584 -8.5059 10.4601 -7.3315 16.4988 4.2694 -3.0594 7.1623 -0.0000 -0.0000 0.0000 -83.0733 9.8821 44.0391 24.2131 -35.3888 -7.8296 -0.0000 -0.0000 6.3346 8.9164 -31.3050 -4.6604 -7.1250 0.0000 -0.0000 -12.8189 -0.9468 13.3659 -0.0000 -0.0000 0.0000 81.2358 -14.1120 27.3354 -18.8538 29.2366 -4.9592 0.0000 0.0000 14.2156 -4.1124 -52.6074 3.2693 7.1250 -0.0000 -0.0000 69.3158 -72.6791 -51.5634
